#!OML:ASF F:\VICON\USERDATA\INSTALL\rory3\rory3.ASF
:FULLY-SPECIFIED
:DEGREES
71
root 3.84144 17.5081 4.24983 21.5968 -16.1509 0.498273
lowerback -13.1727 3.87031 2.74065
upperback -14.1256 4.82296 -0.0779089
thorax -7.5312 2.13139 -1.28397
lowerneck -2.40607 18.0499 13.858
upperneck 9.69727 22.7672 6.43638
head 4.0938 11.9692 1.11868
rclavicle -1.78906e-014 -2.14687e-014
rhumerus -1.85346 -26.0225 19.076
rradius 121.422
rwrist -64.6637
rhand -5.64306 -48.2242
rfingers 7.12502
rthumb 20.1755 -77.1965
lclavicle -1.78906e-014 -2.14687e-014
lhumerus 30.3315 24.8654 -22.0996
lradius 31.4212
lwrist 32.7784
lhand -21.6145 -21.3084
lfingers 7.12502
lthumb 4.78098 8.61766
rfemur -0.945879 3.69178 -7.30691
rtibia -1.27222e-014
rfoot -33.0945 -18.0777
rtoes 55.3746
lfemur -21.5768 -1.22428 -28.8528
ltibia 15.1567
lfoot -13.339 11.1099
ltoes 8.99527
72
root 3.84286 17.5089 4.24894 21.5547 -16.0709 0.525411
lowerback -13.06 3.83031 2.7298
upperback -14.1793 4.77645 -0.0868849
thorax -7.65581 2.10556 -1.30064
lowerneck -2.4367 18.1071 13.8983
upperneck 9.91124 22.8144 6.55222
head 4.15902 12.0099 1.16714
rclavicle -1.56046e-014 -1.35174e-014
rhumerus -1.79289 -25.94 19.0065
rradius 121.433
rwrist -64.6372
rhand -5.79967 -48.2759
rfingers 7.12502
rthumb 20.0249 -77.264
lclavicle -1.56046e-014 -1.35174e-014
lhumerus 30.3133 24.6707 -22.1959
lradius 31.5181
lwrist 32.9748
lhand -22.218 -21.1209
lfingers 7.12502
lthumb 4.19829 8.81752
rfemur -0.857513 3.63316 -7.29712
rtibia 2.54444e-014
rfoot -32.973 -18.4859
rtoes 55.3007
lfemur -21.5501 -1.06786 -28.9103
ltibia 15.1747
lfoot -13.2577 10.8955
ltoes 8.65379
73
root 3.84355 17.5085 4.24812 21.5414 -16.0557 0.532191
lowerback -13.0545 3.84624 2.73808
upperback -14.1682 4.79579 -0.125852
thorax -7.64109 2.11297 -1.34498
lowerneck -2.59495 18.1093 13.9358
upperneck 10.1119 22.7679 6.63934
head 4.24058 12.0033 1.21297
rclavicle 5.48646e-014 1.86858e-014
rhumerus -1.94821 -25.8736 19.0818
rradius 121.527
rwrist -64.658
rhand -6.21154 -48.307
rfingers 7.12502
rthumb 19.629 -77.3361
lclavicle 5.48646e-014 1.86858e-014
lhumerus 30.1817 24.4164 -22.4879
lradius 31.6843
lwrist 33.6028
lhand -22.6699 -20.9436
lfingers 7.12502
lthumb 3.76192 9.00289
rfemur -0.825873 3.62334 -7.30215
rtibia 3.49861e-014
rfoot -32.8765 -18.5714
rtoes 55.2571
lfemur -21.55 -1.02771 -28.9271
ltibia 15.1934
lfoot -13.1235 10.8522
ltoes 8.25045
74
root 3.84497 17.5063 4.24666 21.5405 -16.0832 0.563641
lowerback -13.0875 3.86176 2.71288
upperback -14.1288 4.81471 -0.163625
thorax -7.57536 2.12442 -1.36585
lowerneck -2.48542 18.0454 14.0066
upperneck 9.89893 22.7181 6.51718
head 4.17642 11.9637 1.14499
rclavicle -5.46658e-015 1.03368e-014
rhumerus -2.09814 -25.8405 19.1497
rradius 121.637
rwrist -64.6596
rhand -6.22005 -48.2876
rfingers 7.12502
rthumb 19.6208 -77.3174
lclavicle -5.46658e-015 1.03368e-014
lhumerus 30.0823 24.3272 -22.6805
lradius 31.7384
lwrist 33.9844
lhand -22.7866 -20.8045
lfingers 7.12502
lthumb 3.64914 9.144
rfemur -0.833359 3.63157 -7.35283
rtibia 1.59028e-014
rfoot -32.5182 -18.7436
rtoes 55.1019
lfemur -21.5644 -1.04983 -28.9658
ltibia 15.1957
lfoot -13.1906 10.8794
ltoes 8.2927
75
root 3.84796 17.5062 4.2481 21.5444 -16.0435 0.533145
lowerback -13.0445 3.83801 2.76103
upperback -14.132 4.78195 -0.156632
thorax -7.6008 2.1034 -1.3902
lowerneck -2.29187 17.9969 13.9807
upperneck 9.16277 22.738 6.32265
head 4.35422 11.9223 1.11731
rclavicle -2.22639e-014 -3.97569e-016
rhumerus -2.05748 -25.7317 19.0588
rradius 121.675
rwrist -64.5344
rhand -6.32462 -48.167
rfingers 7.12502
rthumb 19.5203 -77.2071
lclavicle -2.22639e-014 -3.97569e-016
lhumerus 29.9928 24.2569 -22.8248
lradius 31.7461
lwrist 34.205
lhand -22.9521 -20.4325
lfingers 7.12502
lthumb 3.48935 9.51867
rfemur -0.813025 3.61008 -7.31405
rtibia 1.90833e-014
rfoot -31.7427 -19.8143
rtoes 54.6537
lfemur -21.5584 -1.07231 -28.9367
ltibia 15.2076
lfoot -13.2817 10.8725
ltoes 8.44733
76
root 3.84887 17.5071 4.25015 21.5597 -16.06 0.503263
lowerback -13.0645 3.82685 2.77362
upperback -14.0984 4.76435 -0.160938
thorax -7.55064 2.09438 -1.40009
lowerneck -2.20283 17.9762 14.0709
upperneck 8.82395 22.7579 6.07729
head 4.25821 11.9069 1.0004
rclavicle 3.71727e-014 5.36719e-014
rhumerus -2.06407 -25.7271 18.9428
rradius 121.69
rwrist -64.3622
rhand -6.75781 -48.0863
rfingers 7.12502
rthumb 19.1037 -77.1681
lclavicle 3.71727e-014 5.36719e-014
lhumerus 29.7402 24.0319 -23.2101
lradius 31.8986
lwrist 34.6545
lhand -23.3654 -19.9444
lfingers 7.12502
lthumb 3.09026 10.0129
rfemur -0.834471 3.63028 -7.29026
rtibia 1.90833e-014
rfoot -31.1236 -20.8511
rtoes 54.2865
lfemur -21.582 -0.995792 -28.9321
ltibia 15.2528
lfoot -13.2945 10.8285
ltoes 8.51711
77
root 3.84762 17.5082 4.24992 21.576 -16.145 0.486579
lowerback -13.0834 3.83912 2.73559
upperback -14.0806 4.78127 -0.173147
thorax -7.52081 2.10624 -1.38886
lowerneck -2.24395 17.9678 14.0843
upperneck 8.70027 22.7518 5.992
head 4.23349 11.8949 0.968176
rclavicle 2.74323e-014 2.94201e-014
rhumerus -2.08952 -25.78 18.8422
rradius 121.691
rwrist -64.158
rhand -6.92771 -48.0566
rfingers 7.12502
rthumb 18.9403 -77.1544
lclavicle 2.74323e-014 2.94201e-014
lhumerus 29.545 23.7751 -23.5444
lradius 32.0473
lwrist 35.0448
lhand -23.8774 -19.6138
lfingers 7.12502
lthumb 2.59579 10.3502
rfemur -0.905316 3.70129 -7.29802
rtibia 0
rfoot -30.6132 -21.6938
rtoes 54.0107
lfemur -21.6219 -0.871202 -28.9501
ltibia 15.2977
lfoot -13.3206 10.7728
ltoes 8.70547
78
root 3.84939 17.5092 4.25074 21.6065 -16.1724 0.387938
lowerback -13.0866 3.86289 2.84001
upperback -14.0882 4.80588 -0.147054
thorax -7.52183 2.11052 -1.41697
lowerneck -2.21989 17.9513 14.048
upperneck 8.69989 22.7442 5.91141
head 4.23489 11.8874 0.945233
rclavicle -4.54223e-014 -2.74323e-014
rhumerus -2.05267 -25.7656 18.7797
rradius 121.713
rwrist -64.0262
rhand -7.02748 -48.0612
rfingers 7.12502
rthumb 18.8444 -77.1684
lclavicle -4.54223e-014 -2.74323e-014
lhumerus 29.4817 23.6657 -23.6527
lradius 32.0814
lwrist 35.4196
lhand -24.3937 -19.367
lfingers 7.12502
lthumb 2.0971 10.6025
rfemur -0.943436 3.7542 -7.2134
rtibia -3.18055e-015
rfoot -29.5832 -22.9093
rtoes 53.4237
lfemur -21.643 -0.871319 -28.8535
ltibia 15.322
lfoot -13.3712 10.7839
ltoes 9.10923
79
root 3.85239 17.5083 4.25177 21.6342 -16.1779 0.336373
lowerback -13.1828 3.89402 2.92275
upperback -14.0881 4.83693 -0.132903
thorax -7.46377 2.12066 -1.43875
lowerneck -2.19872 17.9249 14.0573
upperneck 8.90101 22.7074 5.86122
head 4.31333 11.8784 0.941226
rclavicle -1.78906e-015 -1.74931e-014
rhumerus -2.08133 -25.733 18.838
rradius 121.787
rwrist -64.1709
rhand -7.35651 -48.0574
rfingers 7.12502
rthumb 18.5279 -77.195
lclavicle -1.78906e-015 -1.74931e-014
lhumerus 29.4689 23.6198 -23.6357
lradius 32.1134
lwrist 35.7179
lhand -24.7957 -19.2452
lfingers 7.12502
lthumb 1.70884 10.7277
rfemur -0.952394 3.76874 -7.17412
rtibia 1.27222e-014
rfoot -28.9729 -23.4609
rtoes 53.1187
lfemur -21.6794 -0.988859 -28.7822
ltibia 15.3566
lfoot -13.4374 10.8822
ltoes 9.55121
80
root 3.85557 17.5076 4.24991 21.6789 -16.1256 0.345586
lowerback -13.2377 3.90257 2.9349
upperback -14.1696 4.84566 -0.141105
thorax -7.52596 2.12141 -1.45336
lowerneck -2.00468 17.8866 14.2505
upperneck 9.45814 22.6606 5.83522
head 4.06569 11.8894 0.861259
rclavicle 4.47266e-014 3.65764e-014
rhumerus -2.0663 -25.625 18.7995
rradius 121.816
rwrist -64.342
rhand -7.6303 -48.0709
rfingers 7.12502
rthumb 18.2645 -77.2335
lclavicle 4.47266e-014 3.65764e-014
lhumerus 29.631 23.6227 -23.3859
lradius 32.1129
lwrist 35.6902
lhand -25.0163 -19.42
lfingers 7.12502
lthumb 1.49585 10.5545
rfemur -0.956276 3.70046 -7.17118
rtibia 2.54444e-014
rfoot -29.363 -22.9895
rtoes 53.4139
lfemur -21.7654 -1.02154 -28.7906
ltibia 15.4127
lfoot -13.3619 10.8563
ltoes 10.3346
81
root 3.85737 17.509 4.24851 21.6845 -16.1153 0.356792
lowerback -13.1991 3.88639 2.91708
upperback -14.2225 4.8279 -0.14133
thorax -7.60983 2.11167 -1.45
lowerneck -1.99115 17.8912 14.2511
upperneck 9.63296 22.6482 5.9763
head 4.10284 11.8982 0.907913
rclavicle 7.25564e-015 3.22031e-014
rhumerus -1.97838 -25.5295 18.5989
rradius 121.807
rwrist -64.2523
rhand -7.74706 -48.1244
rfingers 7.12502
rthumb 18.1522 -77.2974
lclavicle 7.25564e-015 3.22031e-014
lhumerus 29.6105 23.5654 -23.3747
lradius 32.2048
lwrist 35.9619
lhand -25.326 -19.3972
lfingers 7.12502
lthumb 1.19669 10.5792
rfemur -0.970915 3.68534 -7.16641
rtibia -3.18055e-015
rfoot -29.5964 -22.8584
rtoes 53.496
lfemur -21.8 -0.785149 -28.8687
ltibia 15.4484
lfoot -13.2513 10.6325
ltoes 10.8311
82
root 3.85658 17.5096 4.2467 21.6623 -16.1879 0.350201
lowerback -13.1501 3.88966 2.88321
upperback -14.2231 4.83661 -0.14057
thorax -7.6392 2.11838 -1.43327
lowerneck -1.92735 17.9036 14.2159
upperneck 9.60975 22.6735 6.04445
head 4.07458 11.9108 0.923075
rclavicle -1.13307e-014 1.19271e-015
rhumerus -1.98831 -25.5348 18.5349
rradius 121.846
rwrist -64.1885
rhand -7.76192 -48.1518
rfingers 7.12502
rthumb 18.1379 -77.3261
lclavicle -1.13307e-014 1.19271e-015
lhumerus 29.4072 23.3571 -23.6744
lradius 32.3609
lwrist 36.5313
lhand -25.6156 -19.3177
lfingers 7.12502
lthumb 0.917037 10.6601
rfemur -1.02526 3.7603 -7.16408
rtibia 2.22639e-014
rfoot -30.0204 -22.5654
rtoes 53.6358
lfemur -21.8091 -0.660817 -28.8953
ltibia 15.468
lfoot -13.0956 10.6531
ltoes 8.66761
83
root 3.85605 17.5086 4.24348 21.6955 -16.247 0.309639
lowerback -13.1474 3.93005 2.88191
upperback -14.279 4.89072 -0.147109
thorax -7.70251 2.14351 -1.43831
lowerneck -1.67703 17.8468 14.1456
upperneck 9.15025 22.6664 6.01775
head 4.29623 11.8782 0.936721
rclavicle 1.15295e-014 -1.31198e-014
rhumerus -2.0596 -25.468 18.5348
rradius 121.912
rwrist -64.2383
rhand -7.77535 -48.0715
rfingers 7.12502
rthumb 18.125 -77.247
lclavicle 1.15295e-014 -1.31198e-014
lhumerus 29.3891 23.0932 -23.8193
lradius 32.4297
lwrist 37.0003
lhand -25.3402 -19.4509
lfingers 7.12502
lthumb 1.18296 10.5256
rfemur -1.13771 3.81333 -7.13423
rtibia 1.90833e-014
rfoot -30.4479 -22.2136
rtoes 53.8134
lfemur -21.8951 -0.717376 -28.8377
ltibia 15.4929
lfoot -12.8364 10.8809
ltoes 5.58984
84
root 3.85628 17.508 4.24196 21.7171 -16.2868 0.283932
lowerback -13.2148 3.96287 2.87853
upperback -14.2823 4.93084 -0.155584
thorax -7.66751 2.16425 -1.43812
lowerneck -1.32774 17.7518 14.3051
upperneck 8.94708 22.6261 5.74081
head 4.21402 11.841 0.781773
rclavicle -5.10877e-014 -1.23246e-014
rhumerus -2.04821 -25.427 18.3479
rradius 121.935
rwrist -64.1365
rhand -7.64207 -47.9158
rfingers 7.12502
rthumb 18.2532 -77.0794
lclavicle -5.10877e-014 -1.23246e-014
lhumerus 29.3271 22.9202 -23.9376
lradius 32.5235
lwrist 37.3248
lhand -24.3405 -19.6599
lfingers 7.12502
lthumb 2.14848 10.3091
rfemur -1.20963 3.84882 -7.11497
rtibia 2.22639e-014
rfoot -30.8023 -21.8114
rtoes 53.9845
lfemur -21.9674 -0.614485 -28.8403
ltibia 15.5284
lfoot -12.7929 10.8797
ltoes 4.72122
85
root 3.85848 17.5081 4.24047 21.6565 -16.2532 0.22942
lowerback -13.1686 3.97711 2.95016
upperback -14.2655 4.94692 -0.153672
thorax -7.66755 2.16632 -1.47669
lowerneck -1.34351 17.745 14.2974
upperneck 9.06244 22.6047 5.7951
head 4.25055 11.8384 0.807676
rclavicle -1.42131e-014 2.26615e-014
rhumerus -1.952 -25.3993 18.121
rradius 121.923
rwrist -63.9689
rhand -7.45962 -47.7804
rfingers 7.12502
rthumb 18.4287 -76.9275
lclavicle -1.42131e-014 2.26615e-014
lhumerus 29.3121 22.9523 -23.876
lradius 32.6148
lwrist 37.1595
lhand -23.4597 -19.8102
lfingers 7.12502
lthumb 2.99913 10.1485
rfemur -1.12854 3.87398 -7.0362
rtibia 0
rfoot -31.1713 -21.3499
rtoes 54.162
lfemur -21.9175 -0.554167 -28.7974
ltibia 15.5783
lfoot -12.8899 10.8448
ltoes 4.78587
